<?xml version="1.0" encoding="utf-8"?>
<!-- Generator: Adobe Illustrator 27.0.0, SVG Export Plug-In . SVG Version: 6.00 Build 0)  -->
<svg version="1.1" id="Layer_1" xmlns="http://www.w3.org/2000/svg" xmlns:xlink="http://www.w3.org/1999/xlink" x="0px" y="0px"
	 viewBox="0 0 800 800" style="enable-background:new 0 0 800 800;" xml:space="preserve">
<style type="text/css">
	.st0{fill:#592600;}
</style>
<path class="st0" d="M555.4,323.4c-15.9,0-30.3,3.8-42.2,10.6c10,9.8,17.3,21.8,21.5,35c5.5-4.5,12.7-7.1,20.7-7.1
	c18.7,0,32.6,14.1,32.6,33.1c0,19.3-13.8,33.4-32.6,33.4c-7.8,0-14.7-2.4-20.2-6.7c-7.1-5.5-11.7-14.1-12.3-24.3
	c0-0.8-0.1-1.6-0.1-2.4c0-0.5,0-1,0-1.5c-0.7-20.1-9.1-37.6-22.8-50c-4-3.6-8.4-6.8-13.1-9.4c-11.8-6.6-25.8-10.4-41.3-10.4
	c-11.8,0-22.6,2.1-32.3,6c-24.6,10-41.3,31.8-44.5,60.1c-0.4,3.3-0.6,6.6-0.6,10.1v8.3c-2.2,12.4-10.9,20.2-23.1,20.2
	c-14.1,0-23.6-10.6-23.6-26.6v-40.6c0-18.8-15.2-34-34-34H234v-20.9c0-12.4-10.1-22.5-22.5-22.5h-22v43.4H167v14.9
	c0,12.4,10.1,22.5,22.5,22.5h0v51c-0.5,31.5,19.5,51.3,52.4,51.3c9.2,0,17.9-1.6,25.5-4.9v-38.8c-5.4,2.7-10,3.8-14.4,3.8
	c-11.4,0-19-7.6-19-18.4v-44h43.2v35.8c0,39.1,23.3,63.2,60.5,63.2c12.9,0,23.1-3.3,30.7-10.6v11.9v51.3
	c24.9-9.8,41.3-31.8,44.5-61.4c0.2-1.7,0.3-3.5,0.4-5.3c9,11.1,23.2,17.7,40.8,17.7c12.6,0,24.5-3.4,34.6-9.4
	c-10.7-10-18.4-22.4-22.7-36.2c-5.5,4.4-12.6,7-20.6,7c-16.6,0-29.3-11-32-26.7c-0.4-2-0.6-4.2-0.6-6.4c0-2.2,0.2-4.4,0.6-6.5
	c2.7-15.9,15.4-26.9,32-26.9c7.9,0,14.9,2.5,20.4,6.9c7,5.6,11.5,14.2,12.1,24.4c0,0.5,0,1.1,0,1.6c0,0.8,0,1.5,0,2.3c0,0,0,0,0,0
	c0.6,20.6,9.4,38.3,23.6,50.7c4,3.5,8.5,6.6,13.3,9.2c11.6,6.2,25.4,9.7,40.6,9.7c44.8,0,77.6-30.4,77.6-71.9
	C633,353.8,600.2,323.4,555.4,323.4z"/>
</svg>
